<svg version="1.2" xmlns="http://www.w3.org/2000/svg" viewBox="0 0 595 842" width="595" height="842">
	<style>
		.s0 { fill: #9d248d } 
		.s1 { fill: #fefefe } 
		.s2 { fill: #eaa0c6;stroke: #9d248d;stroke-miterlimit:10;stroke-width: 2 } 
		.s3 { fill: #fefefe;stroke: #9d248d;stroke-miterlimit:10;stroke-width: 4 } 
		.s4 { fill: #ebaccd } 
		.s5 { fill: #f8cadd;stroke: #9d248d;stroke-miterlimit:10;stroke-width: 2 } 
		.s6 { fill: #f4a3c5 } 
		.s7 { fill: #f9d4e5 } 
		.s8 { fill: #f8cadd } 
		.s9 { fill: #fefefe;stroke: #9d248d;stroke-miterlimit:10;stroke-width: 3 } 
		.s10 { fill: none;stroke: #9d248d;stroke-miterlimit:10;stroke-width: 3 } 
		.s11 { fill: #fefefe;stroke: #9d248d;stroke-miterlimit:10;stroke-width: 2 } 
		.s12 { fill: #fefefe;stroke: #9d248d;stroke-linejoin: round;stroke-width: 2 } 
		.s13 { fill: none;stroke: #9d248d;stroke-miterlimit:10;stroke-width: 6 } 
	</style>
	<g id="tracciato guerr">
		<path id="&lt;Path&gt;" class="s0" d="m332 720.61c0 0-4.5-10.5-14-10-9.5 0.5-11.5 10.5-11.5 10.5z"/>
		<g id="&lt;Group&gt;">
			<path id="&lt;Path&gt;" class="s1" d="m456.5 722.11h-308.5v-492.5h308.5z"/>
			<path id="&lt;Path&gt;" class="s1" d="m280.42 273.9c0 0 3.91 13.54-0.42 23.21-4.33 9.67-5.33 40.67-1.67 43.67 3.67 3 1.17 0.33 1.17 0.33 0 0 41.17-25.33 51.17-35.67 10-10.33 11.33-13 11.33-13l-7-5.33c0 0 9.33-15.67 8.67-21.33-0.67-5.67-5.34-7-5.34-7 0 0-38.66 15.33-40 15.33-1.33 0-13.82-1.76-17.91-0.21z"/>
			<path id="&lt;Path&gt;" class="s1" d="m395 234.78l-17-0.67c0 0 0.33 14.33 4.67 17z"/>
			<path id="&lt;Path&gt;" class="s1" d="m357.33 234.78l20.67-0.67c0 0 1 12.67 4.67 17l-23.67 25.67c0 0-5.33-26.67-1.67-42z"/>
			<path id="&lt;Path&gt;" class="s1" d="m357.67 515.28l2.33-1c0 0 11.17 7.83 9 25.5-2.17 17.66-5.67 24-7.67 27.33-2 3.34-6.16 9-6.16 9l-1.34 0.83-9.83-6.5c0 0 3.33-1.16 6.33-14.33 3-13.17 1.84-37.33 1.84-37.33z"/>
			<path id="&lt;Path&gt;" class="s1" d="m326.5 530.61c0 0 1.67 12 0.83 13-0.83 1-2.66 3.17-2.66 3.17l1.66 12.5 14.5 7.66-4.16-40c0 0-7.17 3.84-10.17 3.67z"/>
			<path id="&lt;Path&gt;" class="s1" d="m272.5 347.61l-7.15 4.79c0 0-4.52 26.38 19.32 58.04 11.18 14.87 16.66 34.17 16.66 34.17 0 0 3.17-17.67-15.83-51.5-18.3-32.59-13.5-45.5-13.5-45.5"/>
			<path id="&lt;Path&gt;" class="s1" d="m274.25 462.36l6.42 84.75c0 0 24.66-14 30-19.33 5.33-5.34 1.33-9.34 1.33-9.34 0 0-2.17-49.83-37.75-56.08z"/>
			<path id="&lt;Path&gt;" class="s1" d="m258.5 719.61l17-0.5c0 0 9.5-7 13.5-6.5 4 0.5 12 6 12 6l14.5 2c0 0-1.5-33-25.5-32.5-24 0.5-33.5 30.5-33.5 30.5"/>
			<path id="&lt;Path&gt;" class="s1" d="m153.5 718.11l24.5 1.5c0 0 7.57-126.9 97.5-140.5 59.5-9 95.5 45.5 102 80 6.5 34.5 11 62.5 11 62.5l31.5-0.17c0 0-21.33-172.66-143.17-172-121.83 0.67-123.33 168.67-123.33 168.67z"/>
			<path id="&lt;Path&gt;" class="s1" d="m214.5 233.61l63-0.5 2.92 40.79c0 0-31.92 10.71-35.92 20.21 0 0-23-53.5-30-60.5z"/>
			<path id="&lt;Path&gt;" class="s1" d="m359.5 278.11l26 45.5 1.68-44.38c0 0 6.82-9.12 12.32-27.62 5.5-18.5 3.5-12.17 3.5-12.17l-4.5-5.83z"/>
			<path id="&lt;Path&gt;" class="s1" d="m395.33 266.78l8.67-20.34c0 0 12 36.34 13.33 44.34 1.34 8-2.2 56.91-2.2 56.91 0 0-12.22 16.16-10.68 22.29l-7.22 0.32 3.44-94.19z"/>
			<path id="&lt;Path&gt;" class="s2" d="m400.67 535.11l-4 103.33c0 0 20.5 58.33 21.91 70.67 1.42 12.33 1.42 12.33 1.42 12.33l34.67-1v-77.33l-52-111.33z"/>
			<path id="&lt;Path&gt;" class="s2" d="m357.19 577.56c0 0 18.98 23.03 20.82 26.52l4.85-52.52c0 0-19.29 14.2-20.86 16.72l-5.65 7.85z"/>
			<path id="&lt;Path&gt;" class="s3" d="m366 518.44c0 0 14.99-11.85 18.67-13.66 3.68-1.82-3 47-3 47 0 0-10 10-19.67 16 0 0 6.49-17.17 7.91-27.92 1.42-10.75-3.91-21.42-3.91-21.42z"/>
			<path id="&lt;Path&gt;" class="s4" d="m339.67 565.78l-4.34-38.67c0 0 20.34-12.33 21.67-12.67 1.33-0.33 6.77 42.92-10.17 56.34z"/>
			<path id="&lt;Path&gt;" class="s5" d="m369.25 368.36c0 0-9.39 35.52-11.77 59.86-2.37 24.33 4.96 53 6.3 68.33 1.33 15.33 2.67 20.33 2.67 20.33l19.29-13.3 3.37-39.36c0 0-8.09 3.26-5.88-0.21 2.22-3.46 5.22-6.46 5.22-6.46 0 0-5.62 2.16-3.65-3.59 1.98-5.74 2.37-3.85 2.37-3.85 0 0-8.82-2.16-0.17-7.67 1.83-1.16 6-3 6-3l-1-29.33-21.77-37.93z"/>
			<path id="&lt;Path&gt;" class="s4" d="m291.33 402.11c0 0 18.17 8.25 20.92 7.75 0 0 4.04 20.41-7.75 35.25 0 0-8.95-37.51-13.17-43z"/>
			<path id="&lt;Path&gt;" class="s6" d="m152.33 583.44c0 0 23.32-18.3 29.49-27.57 6.18-9.26 1.89 0.63 1.89 0.63 0 0 0.98 29.86 6.62 36.94 0 0-35.33 51.17-36.83 124.67z"/>
			<path id="&lt;Path&gt;" class="s2" d="m270.5 386.61c0 0 10.4 20.08 18.25 29.5 7.85 9.42 12.71 33.94 12.71 33.94l-5.21 20.56c0 0-17.5-10.75-21.5-10.25 0 0-7.25-63.25-4.25-73.75z"/>
			<path id="&lt;Path&gt;" class="s7" d="m310.25 436.24c0 0-0.29 39.69 21.98 59.03 22.27 19.34 17.27 16.33 17.27 16.33 0 0-14.34 12.01-25.67 11.84 0 0-2.12-7.25-7.66-5.33 0 0-12.5-39.92-19-44.67 0-1.25 4.08-25.33 13.08-37.2z"/>
			<path id="&lt;Path&gt;" class="s6" d="m256.5 718.61l-66.5-1.5c0 0 3.23-124.25 96-131.5 96-7.5 102 132.5 102 132.5h-66.5c0 0-2.5-29-31.5-30-29-1-33.5 30.5-33.5 30.5z"/>
			<path id="&lt;Path&gt;" class="s7" d="m240.83 361.11l-13.16 4.33c0 0 2 31.34 6.33 48.34 4.33 17 6.33 38.33 4.33 51-2 12.66-2 77.66 1 91.66 0 0 16.67-6 22.34-5.33l0.16-5.33c0 0-0.5-43-8.5-80-8-37-16.58-93.39-12.5-104.67z"/>
			<path id="&lt;Path&gt;" class="s1" d="m154.82 385.37c0 0 41.4-2.13 73.79-18.53 0 0 1.14 38.29 3.77 49.61 0 0-29.71 62.66-77.88 67.51z"/>
			<path id="&lt;Path&gt;" class="s7" d="m200.67 396.44c0.33 6.34 5.33 53.93 4.39 61.46 0 0 21.73-24.89 27-40.5 0 0-3.84-46.5-3.45-50.56 0 0-26.81 8.68-30.28 8.6-1.59-0.03 1.59 3.43 0.13 2.08z"/>
			<path id="&lt;Path&gt;" class="s7" d="m179 233.78l9-0.67c0 0 38.67 100 35.33 131.33l-24.33 8.67c0 0-12.33-102.33-20-139.33z"/>
			<path id="&lt;Path&gt;" class="s7" d="m333.67 235.44c0 0-0.48 26.83 0.76 30.92 0 0 3.24-1.58 6.57-2.25 0 0 5 14.67-9.67 24.33 0 0 3.85 4.57 5.93 7.12 0 0 18.78-14.6 20.09-18.52 0 0-5.2-27.02-0.94-41.14z"/>
			<path id="&lt;Path&gt;" class="s0" d="m151.5 233.11h29c0 0 20.5 126.5 18.5 140 0 0-31.5 9-47 9.5z"/>
			<path id="&lt;Path&gt;" class="s0" d="m188 233.11c0 0 31.5 81.5 34.5 128.5l1.4 4.26 3.77-1.26c0 0-9.29-40.38 17.27-72.19 0 0-4.44-36.81-27.44-59.31z"/>
			<path id="&lt;Path&gt;" class="s0" d="m276.67 233.44l3.75 40.46c0 0 34.97 6.77 44.28 12.24 0 0-1.84-8.53 9.73-19.78v-32.25z"/>
			<path id="&lt;Path&gt;" class="s0" d="m356 234.11c0 0-3.79 28.35 1.35 42.93l2.2-2.2c0 0-4.55-24.73-0.55-41.73z"/>
			<path id="&lt;Path&gt;" class="s0" d="m380.27 251.29l2.36-2.36c0 0-4.13-4.32-1.63-14.82h-3c0 0-0.95 7.35 2.27 17.18z"/>
			<path id="&lt;Path&gt;" class="s0" d="m394 233.11c0 0-89.5 132-240.5 147l-1 5.5c0 0 143.36-9.29 246.93-149.4z"/>
			<path id="&lt;Path&gt;" class="s0" d="m244.94 292.42c0 0 2.59 20.93 2.82 64.06 0 0 28.94-10.64 31.74-15.37 0 0-3.91-16.13 0.29-35.81 4.21-19.69 4.05-27.12 0.63-31.4 0 0-24.49 1.56-35.48 18.52z"/>
			<path id="&lt;Path&gt;" class="s0" d="m238.34 339.84c0 0-7.84-0.23-10.99 22.29 0 0 13.35-6.07 12.25-22.29"/>
			<path id="&lt;Path&gt;" class="s0" d="m304.29 317.86c0 0-12.05 5.47-21.67-1.89 0 0 12.95-5.37 21.67 1.89z"/>
			<path id="&lt;Path&gt;" class="s0" d="m319.36 290.54c0 0-16.86 7.07-22.61 1.57-5.75-5.5 17.47-4.65 22.61-1.57z"/>
			<path id="&lt;Path&gt;" class="s0" d="m321.56 291.79c0 0-3.95 13.74 0 18.53 3.94 4.79 4.05-12.84 0-18.53z"/>
			<path id="&lt;Path&gt;" class="s0" d="m326.58 287.08c0 0-2.58-16.97 12.87-19.46 1.12-0.19-1.45 15.49-12.87 19.46z"/>
			<path id="&lt;Path&gt;" class="s0" d="m398.5 233.61c0 0 15.39 39.57 16.94 53.79 1.56 14.21 1.82 43.36-0.31 60.29 0 0-10.22 7.66-10.68 22.29 0 0 4.46-0.67 4.55 2.13 0.12 3.75 0.5 10.5-2 23.5-2.5 13-0.63 20.25-0.63 20.25 0.11-1.34 5.32 2.07 8.13 6.75 0 0 9.17 16.17 10.5 18.5 1.33 2.33 5 7.33 5.33 15.33 0.34 8 2.45 31.62-0.44 39.14-2.89 7.53-26.38 27.32-26.38 27.32l-1.84 10.88 53 116v-416.67z"/>
			<path id="&lt;Path&gt;" class="s0" d="m400.37 244.06c0 0-8.67 31.3-13.19 35.17l-3.51 66.55c0 0 11.9 15.43 11.66 24.58l4.25 0.75 2.75-85.67c0 0-8-11-9-13.66 0 0 9-20.67 10.67-25.34l-1-7z"/>
			<path id="&lt;Path&gt;" class="s7" d="m393.33 271.78l9 13.66-4.33 83.67c0 0-3.37 0.41-3.33-0.67 0.16-5.16-3.55-20.54-8.17-21.66 0 0 1.53-62.89 2.83-66 1.31-3.12 4-9 4-9z"/>
			<path id="&lt;Path&gt;" class="s0" d="m362.69 279.86l24.31 41.25 0.5 26.58c0 0 6 6.09 7.5 19.42 0.23 2.02 1.17 3.17 1.17 3.17l-1.5 0.16c0 0-1.19 0.9-1.67 2.8-0.98 3.85-1.64 10.6-1.67 13.54-0.08 9.83 3 9.66 3 9.66l-2.33 13.67-23.97-40.44c0 0 7.02-38.04-27.01-70.97z"/>
			<path id="&lt;Path&gt;" class="s8" d="m243.87 335.67c0 0-6.23-6.46-15.4-10.94-9.16-4.47-8.04-2.12-8.04-2.12 0 0 5.1 9.35 8.83 10.94 8.36 3.58 14.61 2.12 14.61 2.12z"/>
			<path id="&lt;Path&gt;" class="s0" d="m230 344.43c0 0-7.67-4.66-17.67-6.65-10-1.99-8.32-0.01-8.32-0.01 0 0 7.32 7.75 11.33 8.34 9 1.33 14.66-1.68 14.66-1.68z"/>
			<path id="&lt;Path&gt;" class="s0" d="m225.98 350.11c0 0-8.92-1.06-18.84 1.27-9.93 2.33-7.58 3.44-7.58 3.44 0 0 9.87 4.02 13.76 2.9 8.74-2.53 12.66-7.61 12.66-7.61z"/>
			<path id="&lt;Path&gt;" class="s1" d="m224.96 357.98c0 0-8.76 1.94-17.37 7.41-8.6 5.47-6.02 5.74-6.02 5.74 0 0 10.79-0.67 14.1-3.02 7.42-5.26 9.29-10.13 9.29-10.13z"/>
			<path id="&lt;Path&gt;" class="s0" d="m319.67 289.44c0 0-21-2.66-26.34 1.34 0 0 11.39 8.85 26.03-0.24"/>
			<path id="&lt;Path&gt;" class="s0" d="m393.33 271.78l7 14-3.1 84.52 2.35 1.06 5.42-87.75-9-20z"/>
			<path id="&lt;Path&gt;" class="s0" d="m286.57 338.28c0 0-20.24 20.26 6.1 64.04 0 0 16 42.46 10.66 49.79-5.33 7.33-1.87-2.06-1.87-2.06 0 0 2.21-27.94-15.46-56.27-17.67-28.34-19.6-34.3-13-51.67z"/>
			<path id="&lt;Path&gt;" class="s0" d="m296.67 471.78c0 0-0.48-4.4 4.66-19.34 1.83-5.3 5.02-11.58 8.29-19.97 8.71-22.36-3.6-48.34-14.44-59.35-10.85-11.01-20.5-18.4-38.51-17.68 0 0 22.16-5.25 40.08 14.54 17.92 19.8 25.79 43.64 13.19 66.88-12.61 23.25-11.27 39.25-11.27 39.25z"/>
			<path id="&lt;Path&gt;" class="s9" d="m264 350.11l-3.5 2.5c0 0-13.02 22.55-4.26 79.86 8.76 57.31 17.13 105.67 14.09 117.64 0 0 1 0.5 5 0.17 3.44-0.29 3-0.84 3-0.84 0 0-1-57-4.66-83.33-3.67-26.33-4-80.33-4-80.33 0 0-7.56-19.42-5.67-35.67z"/>
			<path id="&lt;Path&gt;" class="s0" d="m260.5 352.61l-20.17 8.83c0 0-10.85 27.99 2.41 68.83 13.26 40.84 21.09 101.84 18.26 120.84l10.83-0.83c0 0-4.5-58.17-9.5-81.5-5-23.34-13.16-61.17-1.83-116.17z"/>
			<path id="&lt;Path&gt;" class="s0" d="m237.17 556.94c0 0-8.29-43.57-1.4-85.53 6.9-41.97-3.73-50.95-6.1-68.97-2.37-18.01-4.34-35-4.34-35l3.34-1.33c0 0 2 16.67 3 29 1 12.33 8.66 39.33 8.33 53-0.33 13.67-2 103.67 0.33 108.33z"/>
			<path id="&lt;Path&gt;" class="s9" d="m232.38 416.45c0 0-61.05 81.66-50.56 139.42 0 0 56.93-62.07 50.56-139.42z"/>
			<path id="&lt;Path&gt;" class="s0" d="m152.33 484.11c0 0 32-0.14 52.73-26.21 0 0-29.08 65.4-23.24 97.97l-29.15 28.57z"/>
			<path id="&lt;Path&gt;" class="s1" d="m181.82 555.87c0 0 18.06-20.5 21.51-27.09l1.34 48-15.34 15.33c0 0-3.08-9.02-7.51-36.24z"/>
			<path id="&lt;Path&gt;" class="s0" d="m225.53 479.92c0 0-15.54 37.38-21.2 45.86l0.67 52.66c0 0 18.57-15.57 24.67-18 0 0-10.67-19-4.14-80.52z"/>
			<path id="&lt;Path&gt;" class="s1" d="m152.5 385.61c0 0 38.93-4.19 45.96-8.09l6.6 80.38c0 0-21.89 27.71-52.73 26.21z"/>
			<path id="&lt;Path&gt;" class="s1" d="m234.33 419.44c0 0 0.34 42.34-9.33 65.34-2.94 7-4.02 52.36 4.24 71.09l7.48-3.14c0 0-7.05-39.29-2.46-70.65 4.9-33.43 1.02-54.79 0.07-62.64z"/>
			<path id="&lt;Path&gt;" class="s10" d="m153.5 718.11c0 0-1.28-165.11 127.5-168 111.5-2.5 139.68 159.81 138.84 165.91-0.84 6.09-266.34 2.09-266.34 2.09z"/>
			<path id="&lt;Path&gt;" class="s0" d="m178 719.61c0 0 0.24-140.04 104.62-144.27 104.38-4.23 109.88 142.77 109.88 142.77h-11.5c0 0 11-127.5-91-128-98.13-0.48-94.5 129.5-94.5 129.5z"/>
			<path id="&lt;Path&gt;" class="s0" d="m321.5 718.11c0 0 0.5-34-32-34-32 0-33 36-33 36l7-1.5c0 0 0.51-25.97 25.71-26.77 22.79-0.73 24.81 24.49 24.81 24.49z"/>
			<path id="&lt;Path&gt;" class="s0" d="m326.25 310.36c0 0 3.04 4.42 7.87 9.07 7.08 6.82 17.55 15.24 21.03 21.66 4.09 7.54 4.21 6.95 2.1 17.52-1.03 5.19-3.64 19.95-8.38 40.89-6.19 27.38-12.93 62.52-6.62 103.86 0 0-9.8-5.83-11.27-10.29-1.48-4.46 0.1-78.96 1.35-81.96 0 0 3.34 1.17 5.34-0.33 2-1.5 7.92-34.45 9.08-40.92 0.87-4.87-3-11.62-3-11.62 0 0 2.87-8.88 3.12-11.13 0.25-2.25-4.1-13.23-7.87-18.25-3.77-5.02-12.75-12.25-12.75-18.5z"/>
			<path id="&lt;Path&gt;" class="s0" d="m335.37 333.56l1.26 3.45c0 0 2.05-2.75 4.71-2.83l-0.94-4.71c0 0-4.41 2.53-5.03 4.09z"/>
			<path id="&lt;Path&gt;" class="s0" d="m326.5 339.11c-0.88-0.87-19.42-3.72-20.71-3.86-1.29-0.14-14.74 9.51-16.26 12.44 0 0 6.1-1.25 13.12-6.16 3.1-2.17 4.35-1.92 7.1-1.67 2.75 0.25 14.26 3.24 15.51 2.92 1.26-0.31 1.24-3.67 1.24-3.67z"/>
			<path id="&lt;Path&gt;" class="s0" d="m274.25 462.36c0 0 33.5 5.34 36 61.17 0 0-28.25 19.58-33 21l-0.42 4.91c0 0 26.75 1 35.5 3.5 0 0 12.21-5.53 14.56-7.43 2.36-1.9 1.11-5.15 0.61-11.9-0.5-6.75-2.75-16.5-10.75-16.25 0 0-9.25-38.75-23.5-48.25-14.25-9.5-18.5-8.75-18.5-8.75z"/>
			<path id="&lt;Path&gt;" class="s0" d="m182.67 554.11c0 0 3.33 29.67 10.33 38.33l-3.67 3c0 0-9.33-35.66-9.33-40.33 0-4.67 2.67-1 2.67-1z"/>
			<path id="&lt;Path&gt;" class="s11" d="m393.42 395.15l13.5 0.5-1 20.84c0 0-1.74-0.31-6.45-3.13-4.7-2.83-7.05-5.87-7.05-5.87l1.33-11z"/>
			<path id="&lt;Path&gt;" class="s11" d="m392.5 411.61c0 0 9.52 11.14 12.67 12.83 2.16 1.17 1.33 2 1.33 2v8.67c0 0-4.67-0.06-6.33 0.17-1.66 0.22-8 3.66-8 3.66z"/>
			<path id="&lt;Path&gt;" class="s12" d="m412 467.28c-2-0.5-9-3.5-11.17-5.84-2.16-2.33-1.33-1.66-1.33-1.66 0 0-8.83 3.08-11 4.08-2.17 1-5.5 1-5.5 1 0 0 2-4.75 3.17-6.25 1.16-1.5-2.3-0.73-2-2.5 0.58-3.5 2.33-6 2.33-6 0 0-3.83 0-2.67-4.33 1.17-4.33 4.34-3.17 6.17-4.67 1.83-1.5 9.83-5.83 11.5-6.33 1.67-0.5 9.4 3.27 12.83 4.83 3.44 1.56 11.73 5.77 12.84 6.17 2.83 1 4.33 24.5 4.83 33.33 0.5 8.83 0.83 15.33-3.5 19.67-4.33 4.33-25.67 25.66-25.67 25.66l1-31.5c0 0 3.34-1.5 7.17-3.66 3.83-2.17 9-4.67 9-4.67 0 0-3.5 0.17-4.67 1.17-1.16 1-1.83-0.34-3.83-2-2-1.67-5.48-14.26-5.48-14.26z"/>
			<path id="&lt;Path&gt;" class="s0" d="m392.33 446.78c0 0 7.37-3.26 9.17-3.84 1.81-0.57 8.4 3.48 9.5 3.34 1.1-0.14 4.83 0.66 4 1.5-0.83 0.83-4.17 1-5.33 0.16-1.17-0.83-5.84-3.16-7.67-3.16-1.83 0-9.83 3.66-12.17 4.66-3.47 1.49-2.35 1.2-4 0.17-1.33-0.83 2.84-1.5 2.84-1.5z"/>
			<path id="&lt;Path&gt;" class="s0" d="m386.83 456.11c0 0 10.38-4 13.17-4.75 2.79-0.75 6.67 2.42 7.67 2.92 1 0.5 2.83 1.5 3.5 1.5 0.66 0 1.26 1.36-0.12 1.18-1.38-0.18-8.22-3.18-10.55-3.35-2.33-0.17-13.5 4.5-14.33 5-0.84 0.5 0.66-2.5 0.66-2.5z"/>
			<path id="&lt;Path&gt;" class="s0" d="m423 453.28c-1.17 3.5-2.33 5.5-4.5 8.83-1.35 2.08-1.83 2.67-1.83 2.67 0 0 3.16 0 4.66-3.84 1.5-3.83 1.67-7.66 1.67-7.66z"/>
			<path id="&lt;Path&gt;" class="s3" d="m378.67 606.78c0 0 9.9 15.01 18 31.66l6.66-173.33c0 0-3-5-5.33-4.67-2.33 0.34-8.89 3.78-8.89 3.78z"/>
			<path id="&lt;Path&gt;" class="s0" d="m413.25 483.65c0 0-8.21-11.72-7.23-14.13 0.98-2.41 6.91-2.82 6.91-2.82l-9.26 1.74c0 0 0.45 10.98 1.73 13.33 1.27 2.34 8.77 5.51 8.77 5.51z"/>
			<path id="&lt;Path&gt;" class="s12" d="m393 407.44c0 0 2.17 11.17 11 16.67 8.83 5.5 5.67 3.5 5.67 3.5l4.66 12 12.84 6.17c0 0-8.34-14.17-9.5-17.17-1.17-3-3.5-8.5-4.84-9-1.33-0.5-16.66-9.5-19.83-12.17z"/>
			<path id="&lt;Path&gt;" class="s0" d="m403.67 468.44l8.33-1.16c0 0-6.5-2.92-8-3.67-1.5-0.75-3.5-0.75-3.5-0.75z"/>
			<path id="&lt;Path&gt;" class="s0" d="m391.5 379.11c0 0 6.5 1.5 8 0 1.5-1.5 0.5-2.25 0.5-2.25l-8.75-0.25z"/>
			<path id="&lt;Path&gt;" class="s0" d="m394.25 371.61c0 0 12 1.25 14.75 0.5 2.75-0.75 0.75-2.75 0.75-2.75 0 0-13.5-1-15.75 0-2.25 1 0.25 2.25 0.25 2.25z"/>
			<path id="&lt;Path&gt;" class="s0" d="m292.04 401.07c0 0 29.24 10.26 47.1 5.65 0 0 3.19 1.72 1.53 3.72-1.67 2-12.13 3.57-23 1.34-10.87-2.23-23.34-7-26.34-9.67-3-2.67 0.71-1.04 0.71-1.04z"/>
			<path id="&lt;Path&gt;" class="s0" d="m336.63 381.6c0 0 3.5-1.43 3.77-0.63 0.27 0.81 2.36 3.28 1.57 4.71-0.8 1.43-2.58 2.14-3.77 2.2-1.2 0.06-8.78-0.1-8.78-0.1 0 0-0.34-1.34 0.58-1.25 0.92 0.08 2.67-1.84 2.83-2.5 0.17-0.67 0 0.58 0 0.58 0 0-1.07-0.63-2.25-0.08-1.17 0.54-3.33 0.75-4.41 1.5-1.09 0.75-2.34 2.84-3.04 3.42-0.71 0.58-4.64 0.99-5.63 0.58-0.99-0.41-2.17-3.09-0.58-3.92 1.58-0.83 2.5-0.33 2.5 0.17 0 0.5-0.34 1.5 0.41 1.83 0.75 0.33 1.34 0.33 2.34 0 1-0.33 2.21-2.11 3.47-3.06 1.25-0.94-0.55-0.69 2.2-2.19 2.75-1.5 3.58-1.5 4.49-1.75 0.92-0.25 1.79-0.14 1.79-0.14z"/>
			<path id="&lt;Path&gt;" class="s0" d="m323.13 390.08c0 0 1.57-0.32 2.19 0 0.63 0.31 1.01 1.35 1.89 0.94 0.87-0.41 1.62-0.83 2.87-1.33 1.25-0.5 5.92-0.55 5.92-0.55 0 0 2.02 2.12 2.51 1.88 0 0-1.59 2.84-3.01 3.84-1.42 1-0.17 0.92-2.08 0.83-1.92-0.08-3.02 0.03-3.39-0.27-0.36-0.31-1.27-1.93-1.57-2.2-0.29-0.28-1.88-1.26-1.88-1.26 0 0-1.87-1.11-2.66-1.18-0.79-0.07-0.79-0.7-0.79-0.7z"/>
			<path id="&lt;Path&gt;" class="s0" d="m329.72 370.3c0 0-1.64 2.73-0.47 3.23 1.17 0.5 1.58-0.09 1.58-0.09 0 0 2.17-1.25 2.67-1.25 0.5 0 1.75 1.09 2.08 1.25 0.34 0.17 0.34 0.59 0.34 0.59 0 0-3.51 1.91-5.17 1.91-1.66 0.01-1.42-0.16-2.5-0.75-1.08-0.58-0.76-1.1-1.67-1.75-0.91-0.66-0.63-0.32-0.63-0.32l0.13-1.51z"/>
			<path id="&lt;Path&gt;" class="s0" d="m337.88 357.73c0 0 2.12 4.07 3.29 5.13 1.16 1.06 2.5 3.58 2.33 4.17-0.17 0.58-1.91 4.76-2.16 4.84-0.26 0.07-1.09-0.01-1.09-0.01l-0.17-0.31c0 0 1.42-4.21 1.34-4.77-0.08-0.57-2.17-3.92-3.17-5.25-1-1.34-2.08-3.5-2.08-3.5z"/>
			<path id="&lt;Path&gt;" class="s0" d="m324.08 355.11c0 0-0.89-4.68-1.08-5.58-0.19-0.9-0.19-0.9-0.19-0.9 0 0-7.01 1.36-8.16 1.25-1.15-0.1-4.4 0.73-6.07 0.73-1.66 0-3.66 0.17-3.66 0.17 0 0-6.12 1.23-7.23 0.99 0 0 1.14 1.17 2.06 1.51 0.92 0.33 2.8 1.93 2.65 2.26-0.15 0.32 0.91-0.29 1.26-0.95 0.34-0.65 0.67-0.81 0.67-0.81 0 0 1.63 0.85 1.53 1.76-0.11 0.9 0.31 4.39 0.31 4.39 0 0 1.33-0.57 1.58-1.15 0.25-0.59 1.42-3.84 1.42-3.84l2.66-0.08c0 0 0.92 4.68 2.5 4.13 0 0 7.09-2.71 8.09-3.05 0.87-0.29 1.66-0.83 1.66-0.83z"/>
			<path id="&lt;Path&gt;" class="s0" d="m337.57 345.8c0 0 2.35 2.51 3.14 2.2 0 0 0.63 1.92 0 2.51-0.63 0.6-0.46 1.27-0.46 1.27 0 0 1.92 0.08 3.25-0.25 1.33-0.34 2.5-0.75 2.5-0.75l1.42-4-1.25-4.25-0.75-0.5c0 0-7.45 3.72-7.85 3.77z"/>
			<path id="&lt;Path&gt;" class="s8" d="m276.53 317.67c0 0-6.23-6.46-15.39-10.94-9.16-4.47-8.05-2.12-8.05-2.12 0 0 5.11 9.35 8.84 10.94 8.36 3.58 14.6 2.12 14.6 2.12z"/>
			<path id="&lt;Path&gt;" class="s1" d="m273.96 322.89c0 0-6.73 2.44-13.64 7.5-6.92 5.06-5 4.97-5 4.97 0 0 7.93-0.81 10.6-2.94 6.01-4.77 8.04-9.53 8.04-9.53z"/>
			<path id="&lt;Path&gt;" class="s0" d="m320 411.11c0 0-14.33 25.33-4.67 52 9.67 26.67 22.67 35 26 38 3.34 3 10.06 9.55 10.06 9.55l-1.89 0.94c0 0-19.41-11.63-30.46-34.23-11.04-22.59-8.98-39.62-9.04-42.26-0.06-2.64 3.67-9.67 4.33-16.33 0.67-6.67-0.94-7.98-0.94-7.98z"/>
			<path id="&lt;Path&gt;" class="s0" d="m325 524.11c0 0 15.1-3.71 21.05-9.69 5.95-5.98 6.28-5.31 9.28-4.98 3 0.34 12.13 3.01 13.67 12 1.54 9 4.37 17.48 3.11 22.81-1.26 5.34-9.26 26.6-15.61 34.53l-2.83-2.84c0 0 15.66-14.83 14.33-36.16-1.33-21.34-8.67-25-8.67-25 0 0-21 16.66-33.66 16l-1.84-7.34z"/>
			<path id="&lt;Path&gt;" class="s0" d="m323.67 545.11c0 0 1.14 10.25 2 14l1.85 2.1c0 0-0.85-13.77-1.52-17.77-0.67-4-2.33 1.67-2.33 1.67z"/>
			<path id="&lt;Path&gt;" class="s13" d="m454.67 720.44h-303.17v-487.33h303.17z"/>
		</g>
	</g>
</svg>