<svg version="1.2" xmlns="http://www.w3.org/2000/svg" viewBox="0 0 310 495" width="310" height="495"><style>.a{fill:#9d248d}.b{fill:#fefefe}.c{fill:#eaa0c6;stroke:#9d248d;stroke-miterlimit:10;stroke-width:2}.d{fill:#fefefe;stroke:#9d248d;stroke-miterlimit:10;stroke-width:4}.e{fill:#ebaccd}.f{fill:#f8cadd;stroke:#9d248d;stroke-miterlimit:10;stroke-width:2}.g{fill:#f4a3c5}.h{fill:#f9d4e5}.i{fill:#f8cadd}.j{fill:#fefefe;stroke:#9d248d;stroke-miterlimit:10;stroke-width:3}.k{fill:none;stroke:#9d248d;stroke-miterlimit:10;stroke-width:3}.l{fill:#fefefe;stroke:#9d248d;stroke-miterlimit:10;stroke-width:2}.m{fill:#fefefe;stroke:#9d248d;stroke-linejoin:round;stroke-width:2}.n{fill:none;stroke:#9d248d;stroke-miterlimit:10;stroke-width:6}</style><path class="a" d="m184 491.6c0 0-4.5-10.5-14-10-9.5 0.5-11.5 10.5-11.5 10.5z"/><path class="b" d="m308.5 493.1h-308.5v-492.5h308.5z"/><path class="b" d="m132.4 44.9c0 0 3.9 13.5-0.4 23.2-4.3 9.7-5.3 40.7-1.7 43.7 3.7 3 1.2 0.3 1.2 0.3 0 0 41.2-25.3 51.2-35.7 10-10.3 11.3-13 11.3-13l-7-5.3c0 0 9.3-15.7 8.7-21.3-0.7-5.7-5.4-7-5.4-7 0 0-38.6 15.3-40 15.3-1.3 0-13.8-1.8-17.9-0.2z"/><path class="b" d="m247 5.8l-17-0.7c0 0 0.3 14.3 4.7 17z"/><path class="b" d="m209.3 5.8l20.7-0.7c0 0 1 12.7 4.7 17l-23.7 25.7c0 0-5.3-26.7-1.7-42z"/><path class="b" d="m209.7 286.3l2.3-1c0 0 11.2 7.8 9 25.5-2.2 17.6-5.7 24-7.7 27.3-2 3.4-6.1 9-6.1 9l-1.4 0.8-9.8-6.5c0 0 3.3-1.1 6.3-14.3 3-13.2 1.9-37.3 1.9-37.3z"/><path class="b" d="m178.5 301.6c0 0 1.7 12 0.8 13-0.8 1-2.6 3.2-2.6 3.2l1.6 12.5 14.5 7.6-4.1-40c0 0-7.2 3.9-10.2 3.7z"/><path class="b" d="m124.5 118.6l-7.1 4.8c0 0-4.6 26.4 19.3 58 11.2 14.9 16.6 34.2 16.6 34.2 0 0 3.2-17.7-15.8-51.5-18.3-32.6-13.5-45.5-13.5-45.5"/><path class="b" d="m126.3 233.4l6.4 84.7c0 0 24.6-14 30-19.3 5.3-5.4 1.3-9.4 1.3-9.4 0 0-2.2-49.8-37.8-56z"/><path class="b" d="m110.5 490.6l17-0.5c0 0 9.5-7 13.5-6.5 4 0.5 12 6 12 6l14.5 2c0 0-1.5-33-25.5-32.5-24 0.5-33.5 30.5-33.5 30.5"/><path class="b" d="m5.5 489.1l24.5 1.5c0 0 7.6-126.9 97.5-140.5 59.5-9 95.5 45.5 102 80 6.5 34.5 11 62.5 11 62.5l31.5-0.2c0 0-21.3-172.6-143.2-172-121.8 0.7-123.3 168.7-123.3 168.7z"/><path class="b" d="m66.5 4.6l63-0.5 2.9 40.8c0 0-31.9 10.7-35.9 20.2 0 0-23-53.5-30-60.5z"/><path class="b" d="m211.5 49.1l26 45.5 1.7-44.4c0 0 6.8-9.1 12.3-27.6 5.5-18.5 3.5-12.2 3.5-12.2l-4.5-5.8z"/><path class="b" d="m247.3 37.8l8.7-20.4c0 0 12 36.4 13.3 44.4 1.4 8-2.2 56.9-2.2 56.9 0 0-12.2 16.1-10.7 22.3l-7.2 0.3 3.5-94.2z"/><path class="c" d="m252.7 306.1l-4 103.3c0 0 20.5 58.4 21.9 70.7 1.4 12.3 1.4 12.3 1.4 12.3l34.7-1v-77.3l-52-111.3z"/><path class="c" d="m209.2 348.6c0 0 19 23 20.8 26.5l4.9-52.5c0 0-19.3 14.2-20.9 16.7l-5.6 7.8z"/><path class="d" d="m218 289.4c0 0 15-11.8 18.7-13.6 3.7-1.8-3 47-3 47 0 0-10 10-19.7 16 0 0 6.5-17.2 7.9-27.9 1.4-10.8-3.9-21.5-3.9-21.5z"/><path class="e" d="m191.7 336.8l-4.4-38.7c0 0 20.4-12.3 21.7-12.7 1.3-0.3 6.8 43-10.2 56.4z"/><path class="f" d="m221.3 139.4c-0.1 0-9.4 35.5-11.8 59.8-2.4 24.4 4.9 53 6.3 68.4 1.3 15.3 2.7 20.3 2.7 20.3l19.2-13.3 3.4-39.4c0 0-8.1 3.3-5.9-0.2 2.3-3.4 5.3-6.4 5.3-6.4 0 0-5.7 2.1-3.7-3.6 2-5.8 2.4-3.9 2.4-3.9 0 0-8.8-2.2-0.2-7.7 1.8-1.1 6-3 6-3l-1-29.3-21.8-37.9z"/><path class="e" d="m143.3 173.1c0 0 18.2 8.3 20.9 7.8 0 0 4.1 20.4-7.7 35.2 0 0-8.9-37.5-13.2-43z"/><path class="g" d="m4.3 354.4c0 0 23.4-18.3 29.5-27.5 6.2-9.3 1.9 0.6 1.9 0.6 0 0 1 29.9 6.6 36.9 0 0-35.3 51.2-36.8 124.7z"/><path class="c" d="m122.5 157.6c0 0 10.4 20.1 18.3 29.5 7.8 9.4 12.7 34 12.7 34l-5.3 20.5c0 0-17.4-10.7-21.4-10.2-0.1 0-7.3-63.3-4.3-73.8z"/><path class="h" d="m162.3 207.2c-0.1 0-0.3 39.7 21.9 59.1 22.3 19.3 17.3 16.3 17.3 16.3 0 0-14.3 12-25.7 11.8 0 0-2.1-7.2-7.6-5.3 0 0-12.5-39.9-19-44.7 0-1.2 4-25.3 13-37.2z"/><path class="g" d="m108.5 489.6l-66.5-1.5c0 0 3.2-124.2 96-131.5 96-7.5 102 132.5 102 132.5h-66.5c0 0-2.5-29-31.5-30-29-1-33.5 30.5-33.5 30.5z"/><path class="h" d="m92.8 132.1l-13.1 4.3c0 0 2 31.4 6.3 48.4 4.3 17 6.3 38.3 4.3 51-2 12.6-2 77.6 1 91.6 0 0 16.7-6 22.4-5.3l0.1-5.3c0 0-0.5-43-8.5-80-8-37-16.5-93.4-12.5-104.7z"/><path class="b" d="m6.8 156.4c0 0 41.4-2.2 73.8-18.6 0 0 1.2 38.3 3.8 49.7 0 0-29.7 62.6-77.9 67.5z"/><path class="h" d="m52.7 167.4c0.3 6.4 5.3 54 4.4 61.5 0 0 21.7-24.9 27-40.5 0 0-3.9-46.5-3.5-50.6 0 0-26.8 8.7-30.3 8.6-1.6 0 1.6 3.5 0.2 2.1z"/><path class="h" d="m31 4.8l9-0.7c0 0 38.7 100 35.3 131.3l-24.3 8.7c0 0-12.3-102.3-20-139.3z"/><path class="h" d="m185.7 6.4c0 0-0.5 26.9 0.7 31 0 0 3.3-1.6 6.6-2.3 0 0 5 14.7-9.7 24.3 0 0 3.9 4.6 6 7.2 0 0 18.7-14.6 20-18.6 0 0-5.2-27-0.9-41.1z"/><path class="a" d="m3.5 4.1h29c0 0 20.5 126.5 18.5 140 0 0-31.5 9-47 9.5z"/><path class="a" d="m40 4.1c0 0 31.5 81.5 34.5 128.5l1.4 4.3 3.8-1.3c0 0-9.3-40.4 17.2-72.2 0 0-4.4-36.8-27.4-59.3z"/><path class="a" d="m128.7 4.4l3.7 40.5c0 0 35 6.8 44.3 12.2 0 0-1.8-8.5 9.7-19.7v-32.3z"/><path class="a" d="m208 5.1c0 0-3.8 28.4 1.4 42.9l2.2-2.2c0 0-4.6-24.7-0.6-41.7z"/><path class="a" d="m232.3 22.3l2.3-2.4c0 0-4.1-4.3-1.6-14.8h-3c0 0-0.9 7.4 2.3 17.2z"/><path class="a" d="m246 4.1c0 0-89.5 132-240.5 147l-1 5.5c0 0 143.4-9.3 246.9-149.4z"/><path class="a" d="m96.9 63.4c0 0 2.6 21 2.9 64.1 0 0 28.9-10.7 31.7-15.4 0 0-3.9-16.1 0.3-35.8 4.2-19.7 4-27.1 0.6-31.4 0 0-24.5 1.6-35.5 18.5z"/><path class="a" d="m90.3 110.8c0 0-7.8-0.2-11 22.3 0 0 13.4-6 12.3-22.3"/><path class="a" d="m156.3 88.9c0 0-12.1 5.4-21.7-1.9 0 0 13-5.4 21.7 1.9z"/><path class="a" d="m171.4 61.5c0 0-16.9 7.1-22.7 1.6-5.7-5.5 17.5-4.6 22.7-1.6z"/><path class="a" d="m173.6 62.8c0 0-4 13.7 0 18.5 3.9 4.8 4-12.8 0-18.5z"/><path class="a" d="m178.6 58.1c0 0-2.6-17 12.8-19.5 1.2-0.2-1.4 15.5-12.8 19.5z"/><path class="a" d="m250.5 4.6c0 0 15.4 39.6 16.9 53.8 1.6 14.2 1.9 43.4-0.3 60.3 0 0-10.2 7.7-10.7 22.3 0 0 4.5-0.7 4.6 2.1 0.1 3.8 0.5 10.5-2 23.5-2.5 13-0.6 20.3-0.6 20.3 0.1-1.4 5.3 2 8.1 6.7 0 0 9.2 16.2 10.5 18.5 1.3 2.3 5 7.3 5.3 15.3 0.4 8 2.5 31.7-0.4 39.2-2.9 7.5-26.4 27.3-26.4 27.3l-1.8 10.9 53 116v-416.7z"/><path class="a" d="m252.4 15.1c0 0-8.7 31.3-13.2 35.1l-3.5 66.6c0 0 11.9 15.4 11.6 24.6l4.3 0.7 2.7-85.7c0 0-8-11-9-13.6 0 0 9-20.7 10.7-25.4l-1-7z"/><path class="h" d="m245.3 42.8l9 13.6-4.3 83.7c0 0-3.4 0.4-3.3-0.7 0.1-5.1-3.6-20.5-8.2-21.6 0 0 1.5-62.9 2.8-66 1.3-3.1 4-9 4-9z"/><path class="a" d="m214.7 50.9l24.3 41.2 0.5 26.6c0 0 6 6.1 7.5 19.4 0.2 2 1.2 3.2 1.2 3.2l-1.5 0.1c0 0-1.2 0.9-1.7 2.8-1 3.9-1.6 10.6-1.7 13.6 0 9.8 3 9.6 3 9.6l-2.3 13.7-24-40.4c0 0 7-38.1-27-71z"/><path class="i" d="m95.9 106.7c0 0-6.3-6.5-15.4-11-9.2-4.4-8.1-2.1-8.1-2.1 0 0 5.1 9.4 8.9 11 8.3 3.5 14.6 2.1 14.6 2.1z"/><path class="a" d="m82 115.4c0 0-7.7-4.6-17.7-6.6-10-2-8.3 0-8.3 0 0 0 7.3 7.7 11.3 8.3 9 1.3 14.7-1.7 14.7-1.7z"/><path class="a" d="m78 121.1c0 0-8.9-1-18.9 1.3-9.9 2.3-7.5 3.4-7.5 3.4 0 0 9.8 4 13.7 2.9 8.8-2.5 12.7-7.6 12.7-7.6z"/><path class="b" d="m77 129c0 0-8.8 1.9-17.4 7.4-8.6 5.5-6 5.7-6 5.7 0 0 10.8-0.6 14.1-3 7.4-5.2 9.3-10.1 9.3-10.1z"/><path class="a" d="m171.7 60.4c0 0-21-2.6-26.4 1.4 0 0 11.4 8.8 26.1-0.3"/><path class="a" d="m245.3 42.8l7 14-3.1 84.5 2.4 1.1 5.4-87.8-9-20z"/><path class="a" d="m138.6 109.3c0 0-20.3 20.2 6.1 64 0 0 16 42.5 10.6 49.8-5.3 7.3-1.8-2-1.8-2 0 0 2.2-28-15.5-56.3-17.7-28.4-19.6-34.3-13-51.7z"/><path class="a" d="m148.7 242.8c0 0-0.5-4.4 4.6-19.4 1.9-5.3 5.1-11.5 8.3-19.9 8.7-22.4-3.6-48.4-14.4-59.4-10.9-11-20.5-18.4-38.5-17.7 0 0 22.1-5.2 40.1 14.6 17.9 19.8 25.7 43.6 13.1 66.9-12.6 23.2-11.2 39.2-11.2 39.2z"/><path class="j" d="m116 121.1l-3.5 2.5c0 0-13 22.6-4.3 79.9 8.8 57.3 17.2 105.6 14.1 117.6 0 0 1 0.5 5 0.2 3.5-0.3 3-0.9 3-0.9 0 0-1-57-4.6-83.3-3.7-26.3-4-80.3-4-80.3 0 0-7.6-19.4-5.7-35.7z"/><path class="a" d="m112.5 123.6l-20.2 8.8c0 0-10.8 28 2.4 68.9 13.3 40.8 21.1 101.8 18.3 120.8l10.8-0.8c0 0-4.5-58.2-9.5-81.5-5-23.4-13.1-61.2-1.8-116.2z"/><path class="a" d="m89.2 327.9c0 0-8.3-43.5-1.4-85.5 6.9-42-3.8-50.9-6.1-69-2.4-18-4.4-35-4.4-35l3.4-1.3c0 0 2 16.7 3 29 1 12.3 8.6 39.3 8.3 53-0.3 13.7-2 103.7 0.3 108.3z"/><path class="j" d="m84.4 187.4c0 0-61.1 81.7-50.6 139.5 0 0 56.9-62.1 50.6-139.5z"/><path class="a" d="m4.3 255.1c0 0 32-0.1 52.8-26.2 0 0-29.1 65.4-23.3 98l-29.1 28.5z"/><path class="b" d="m33.8 326.9c0 0 18.1-20.5 21.5-27.1l1.4 48-15.4 15.3c0 0-3.1-9-7.5-36.2z"/><path class="a" d="m77.5 250.9c0 0-15.5 37.4-21.2 45.9l0.7 52.6c0 0 18.6-15.5 24.7-18 0 0-10.7-19-4.2-80.5z"/><path class="b" d="m4.5 156.6c0 0 38.9-4.2 46-8.1l6.6 80.4c0 0-21.9 27.7-52.8 26.2z"/><path class="b" d="m86.3 190.4c0 0 0.4 42.4-9.3 65.4-2.9 7-4 52.3 4.2 71.1l7.5-3.2c0 0-7-39.3-2.4-70.6 4.9-33.4 1-54.8 0-62.7z"/><path class="k" d="m5.5 489.1c0 0-1.3-165.1 127.5-168 111.5-2.5 139.7 159.8 138.8 165.9-0.8 6.1-266.3 2.1-266.3 2.1z"/><path class="a" d="m30 490.6c0 0 0.2-140 104.6-144.3 104.4-4.2 109.9 142.8 109.9 142.8h-11.5c0 0 11-127.5-91-128-98.1-0.5-94.5 129.5-94.5 129.5z"/><path class="a" d="m173.5 489.1c0 0 0.5-34-32-34-32 0-33 36-33 36l7-1.5c0 0 0.5-26 25.7-26.8 22.8-0.7 24.8 24.5 24.8 24.5z"/><path class="a" d="m178.3 81.4c-0.1 0 3 4.4 7.8 9 7.1 6.8 17.6 15.3 21 21.7 4.1 7.5 4.3 6.9 2.1 17.5-1 5.2-3.6 20-8.3 40.9-6.2 27.4-13 62.5-6.7 103.9 0 0-9.8-5.9-11.2-10.3-1.5-4.5 0.1-79 1.3-82 0 0 3.4 1.2 5.4-0.3 2-1.5 7.9-34.5 9-40.9 0.9-4.9-3-11.7-3-11.7 0 0 2.9-8.8 3.2-11.1 0.2-2.2-4.1-13.2-7.9-18.2-3.8-5.1-12.8-12.3-12.8-18.5z"/><path class="a" d="m187.4 104.6l1.2 3.4c0 0 2.1-2.7 4.7-2.8l-0.9-4.7c0 0-4.4 2.5-5 4.1z"/><path class="a" d="m178.5 110.1c-0.9-0.9-19.4-3.7-20.7-3.8-1.3-0.2-14.7 9.5-16.3 12.4 0 0 6.1-1.3 13.2-6.2 3.1-2.1 4.3-1.9 7.1-1.6 2.7 0.2 14.2 3.2 15.5 2.9 1.2-0.3 1.2-3.7 1.2-3.7z"/><path class="a" d="m126.3 233.4c0 0 33.5 5.3 36 61.1 0 0-28.3 19.6-33 21l-0.5 4.9c0 0 26.8 1 35.5 3.5 0 0 12.2-5.5 14.6-7.4 2.4-1.9 1.1-5.1 0.6-11.9-0.5-6.7-2.7-16.5-10.7-16.2 0 0-9.3-38.8-23.5-48.3-14.3-9.5-18.5-8.7-18.5-8.7z"/><path class="a" d="m34.7 325.1c0 0 3.3 29.7 10.3 38.3l-3.7 3c0 0-9.3-35.6-9.3-40.3 0-4.7 2.7-1 2.7-1z"/><path class="l" d="m245.4 166.1l13.5 0.5-1 20.9c0 0-1.7-0.3-6.4-3.1-4.7-2.9-7.1-5.9-7.1-5.9l1.3-11z"/><path class="l" d="m244.5 182.6c0 0 9.5 11.2 12.7 12.8 2.1 1.2 1.3 2 1.3 2v8.7c0 0-4.7 0-6.3 0.2-1.7 0.2-8 3.6-8 3.6z"/><path class="m" d="m264 238.3c-2-0.5-9-3.5-11.2-5.9-2.1-2.3-1.3-1.6-1.3-1.6 0 0-8.8 3.1-11 4.1-2.2 1-5.5 1-5.5 1 0 0 2-4.8 3.2-6.3 1.1-1.5-2.3-0.7-2-2.5 0.5-3.5 2.3-6 2.3-6 0 0-3.8 0-2.7-4.3 1.2-4.4 4.4-3.2 6.2-4.7 1.8-1.5 9.8-5.8 11.5-6.3 1.7-0.5 9.4 3.2 12.8 4.8 3.5 1.6 11.8 5.8 12.9 6.2 2.8 1 4.3 24.5 4.8 33.3 0.5 8.8 0.8 15.3-3.5 19.7-4.3 4.3-25.7 25.6-25.7 25.6l1-31.5c0 0 3.4-1.5 7.2-3.6 3.8-2.2 9-4.7 9-4.7 0 0-3.5 0.2-4.7 1.2-1.1 1-1.8-0.4-3.8-2-2-1.7-5.5-14.3-5.5-14.3z"/><path class="a" d="m244.3 217.8c0 0 7.4-3.3 9.2-3.9 1.8-0.5 8.4 3.5 9.5 3.4 1.1-0.2 4.8 0.6 4 1.5-0.8 0.8-4.2 1-5.3 0.1-1.2-0.8-5.9-3.1-7.7-3.1-1.8 0-9.8 3.6-12.2 4.6-3.4 1.5-2.3 1.2-4 0.2-1.3-0.8 2.9-1.5 2.9-1.5z"/><path class="a" d="m238.8 227.1c0 0 10.4-4 13.2-4.7 2.8-0.8 6.7 2.4 7.7 2.9 1 0.5 2.8 1.5 3.5 1.5 0.6 0 1.2 1.3-0.1 1.2-1.4-0.2-8.3-3.2-10.6-3.4-2.3-0.2-13.5 4.5-14.3 5-0.9 0.5 0.6-2.5 0.6-2.5z"/><path class="a" d="m275 224.3c-1.2 3.5-2.3 5.5-4.5 8.8-1.4 2.1-1.8 2.7-1.8 2.7 0 0 3.1 0 4.6-3.9 1.5-3.8 1.7-7.6 1.7-7.6z"/><path class="d" d="m230.7 377.8c0 0 9.9 15 18 31.6l6.6-173.3c0 0-3-5-5.3-4.7-2.3 0.4-8.9 3.8-8.9 3.8z"/><path class="a" d="m265.3 254.6c-0.1 0-8.3-11.7-7.3-14.1 1-2.4 6.9-2.8 6.9-2.8l-9.2 1.7c0 0 0.4 11 1.7 13.4 1.3 2.3 8.8 5.5 8.8 5.5z"/><path class="m" d="m245 178.4c0 0 2.2 11.2 11 16.7 8.8 5.5 5.7 3.5 5.7 3.5l4.6 12 12.9 6.2c0 0-8.4-14.2-9.5-17.2-1.2-3-3.5-8.5-4.9-9-1.3-0.5-16.6-9.5-19.8-12.2z"/><path class="a" d="m255.7 239.4l8.3-1.1c0 0-6.5-2.9-8-3.7-1.5-0.7-3.5-0.7-3.5-0.7z"/><path class="a" d="m243.5 150.1c0 0 6.5 1.5 8 0 1.5-1.5 0.5-2.2 0.5-2.2l-8.8-0.3z"/><path class="a" d="m246.3 142.6c-0.1 0 11.9 1.3 14.7 0.5 2.7-0.7 0.7-2.7 0.7-2.7 0 0-13.5-1-15.7 0-2.3 1 0.2 2.2 0.2 2.2z"/><path class="a" d="m144 172.1c0 0 29.3 10.2 47.1 5.6 0 0 3.2 1.7 1.6 3.7-1.7 2-12.2 3.6-23 1.4-10.9-2.3-23.4-7-26.4-9.7-3-2.7 0.7-1 0.7-1z"/><path class="a" d="m188.6 152.6c0 0 3.5-1.4 3.8-0.6 0.3 0.8 2.4 3.3 1.6 4.7-0.8 1.4-2.6 2.1-3.8 2.2-1.2 0-8.8-0.1-8.8-0.1 0 0-0.3-1.4 0.6-1.3 0.9 0.1 2.7-1.8 2.8-2.5 0.2-0.6 0 0.6 0 0.6 0 0-1-0.6-2.2-0.1-1.2 0.6-3.3 0.8-4.4 1.5-1.1 0.8-2.4 2.9-3.1 3.4-0.7 0.6-4.6 1-5.6 0.6-1-0.4-2.2-3.1-0.6-3.9 1.6-0.8 2.5-0.3 2.5 0.2 0 0.5-0.3 1.5 0.4 1.8 0.8 0.3 1.4 0.3 2.4 0 1-0.3 2.2-2.1 3.4-3.1 1.3-0.9-0.5-0.6 2.2-2.1 2.8-1.5 3.6-1.5 4.5-1.8 1-0.2 1.8-0.1 1.8-0.1z"/><path class="a" d="m175.1 161.1c0 0 1.6-0.3 2.2 0 0.6 0.3 1 1.3 1.9 0.9 0.9-0.4 1.6-0.8 2.9-1.3 1.2-0.5 5.9-0.6 5.9-0.6 0 0 2 2.2 2.5 1.9 0 0-1.6 2.9-3 3.9-1.4 1-0.2 0.9-2.1 0.8-1.9-0.1-3 0-3.4-0.3-0.3-0.3-1.2-1.9-1.5-2.2-0.3-0.3-1.9-1.2-1.9-1.2 0 0-1.9-1.2-2.7-1.2-0.8-0.1-0.8-0.7-0.8-0.7z"/><path class="a" d="m181.7 141.3c0 0-1.6 2.7-0.4 3.2 1.1 0.5 1.5-0.1 1.5-0.1 0 0 2.2-1.2 2.7-1.2 0.5 0 1.8 1.1 2.1 1.2 0.3 0.2 0.3 0.6 0.3 0.6 0 0-3.5 1.9-5.2 1.9-1.6 0.1-1.4-0.1-2.5-0.7-1-0.6-0.7-1.1-1.6-1.8-0.9-0.6-0.7-0.3-0.7-0.3l0.2-1.5z"/><path class="a" d="m189.9 128.7c0 0 2.1 4.1 3.3 5.2 1.1 1 2.5 3.5 2.3 4.1-0.2 0.6-1.9 4.8-2.2 4.9-0.2 0-1.1 0-1.1 0l-0.1-0.3c0 0 1.4-4.3 1.3-4.8-0.1-0.6-2.2-3.9-3.2-5.3-1-1.3-2-3.5-2-3.5z"/><path class="a" d="m176.1 126.1c0 0-0.9-4.7-1.1-5.6-0.2-0.9-0.2-0.9-0.2-0.9 0 0-7 1.4-8.2 1.3-1.1-0.1-4.3 0.7-6 0.7-1.7 0-3.7 0.2-3.7 0.2 0 0-6.1 1.2-7.2 1 0 0 1.1 1.1 2 1.5 1 0.3 2.8 1.9 2.7 2.2-0.2 0.4 0.9-0.2 1.3-0.9 0.3-0.7 0.6-0.8 0.6-0.8 0 0 1.7 0.8 1.6 1.7-0.2 0.9 0.3 4.4 0.3 4.4 0 0 1.3-0.5 1.5-1.1 0.3-0.6 1.5-3.9 1.5-3.9h2.6c0 0 0.9 4.6 2.5 4.1 0 0 7.1-2.7 8.1-3.1 0.9-0.2 1.7-0.8 1.7-0.8z"/><path class="a" d="m189.6 116.8c0 0 2.3 2.5 3.1 2.2 0 0 0.6 1.9 0 2.5-0.6 0.6-0.4 1.3-0.4 1.3 0 0 1.9 0.1 3.2-0.3 1.3-0.3 2.5-0.7 2.5-0.7l1.4-4-1.2-4.3-0.8-0.5c0 0-7.4 3.8-7.8 3.8z"/><path class="i" d="m128.5 88.7c0 0-6.2-6.5-15.4-11-9.1-4.4-8-2.1-8-2.1 0 0 5.1 9.4 8.8 11 8.4 3.5 14.6 2.1 14.6 2.1z"/><path class="b" d="m126 93.9c0 0-6.8 2.4-13.7 7.5-6.9 5-5 5-5 5 0 0 7.9-0.8 10.6-3 6-4.7 8.1-9.5 8.1-9.5z"/><path class="a" d="m172 182.1c0 0-14.3 25.3-4.7 52 9.7 26.7 22.7 35 26 38 3.4 3 10.1 9.6 10.1 9.6l-1.9 0.9c0 0-19.4-11.6-30.5-34.2-11-22.6-8.9-39.6-9-42.3-0.1-2.6 3.7-9.7 4.3-16.3 0.7-6.7-0.9-8-0.9-8z"/><path class="a" d="m177 295.1c0 0 15.1-3.7 21.1-9.7 5.9-6 6.2-5.3 9.2-5 3 0.4 12.2 3 13.7 12 1.5 9 4.4 17.5 3.1 22.8-1.2 5.4-9.2 26.6-15.6 34.6l-2.8-2.9c0 0 15.6-14.8 14.3-36.1-1.3-21.4-8.7-25-8.7-25 0 0-21 16.6-33.6 16l-1.9-7.4z"/><path class="a" d="m175.7 316.1c0 0 1.1 10.3 2 14l1.8 2.1c0 0-0.8-13.8-1.5-17.8-0.7-4-2.3 1.7-2.3 1.7z"/><path class="n" d="m306.7 491.4h-303.2v-487.3h303.2z"/></svg>