<svg xmlns="http://www.w3.org/2000/svg" width="534" height="172" version="1.2"><style>.s0{fill:#9d248d;stroke:#9d248d;stroke-linecap:round;stroke-miterlimit:10;stroke-width:2}</style><g id="tracciato guerr"><g id="&lt;Group&gt;"><path id="&lt;Path&gt;" d="m96.33 40.78 11-25.34S86 3.44 76.67 2.11C67.33.78 10.87-3.29 3.33 52.78c-8.33 62 24.34 88 57.34 87S104 115.11 104 115.11v22.67l4 1s0-79.67-1.67-85L52 52.44l-.67 4.34h39.34s9.66 15 11 30.66c1.33 15.67 1.66 23 1.66 23s-20.66 26.34-43.33 26c-22.67-.33-52.67-22-49.33-67 3.33-45 23-65 51.33-63.66 28.33 1.33 32.67 12.33 32.67 12.33z" class="s0"/><path d="m132 17.78-19.33-.34s.03 1.5.66 1.84c1.26.67 3.67.61 4.34 2.16 1 2.34 1.66 13 1.66 19.34 0 6.33.34 31.66 1.67 37.33s5 16.67 20.67 16.67c15.66 0 20-15 20-21.67s.83-46 .83-48.33c0-1.86 3.41-4.55 6-6 .66-.37.55-.87 1.17-1l-20.34-.34v1.67s7.5 2.67 7.84 6c.33 3.33.5 42.33-.17 49s-4.83 19.68-15.5 19.33c-10.33-.33-16.33-6.83-16.33-16.16 0-9.34-1.17-49.5-.17-53.5s2-4 3.67-4.34c1.66-.33 3.33-1.66 3.33-1.66zM174.33 17.61s0 1.5 1.5 1.67c1.5.16 5.67 3.16 5.84 6.16 0 0 .16 58 .16 62.84 0 4.83-3.5 5-4.66 5.16-1.17.17-2.84.34-2.84.34s-1.16.83 1.34.83 39.83-.33 40.33-.33.17-10.5.67-13.34c.5-2.83 1.5-7.83.66-8-.83-.16-.83 3.84-1.83 5.34s-4 11.5-4.5 12.66c-.5 1.17-.67 1.34-2.5 1.34H186v-41.5c0-1.67 2.33-3.17 4-3.17h9.17s4.66 1.67 4.66 4.83c0 3.17.84 7.34 1.34 8.17s1.33.17 1.33.17-.17-28.17-.17-28.84c0-.66-1.83-.5-1.83.67s-1.67 7.67-3.33 9.67c-1.67 2-4.17 2.33-5.67 2.33h-5.83c-1.34 0-3.34.17-3.5-4.67-.17-4.83 0-12.16 0-14.5 0-2.33.83-6.16 5-6.16 4.16 0 15.33-.67 18.33 1.66 3 2.34 5.67 13.67 5.67 15.17s1.33 3.17 2 2.67c.66-.5-.84-12-.5-15.5.33-3.5-.5-6-.5-6zM339 17.78h19.17s.66 1.83-.34 1.83-6.5 1.83-6.83 6.83 0 59.17 0 61.84c0 2.66 3.33 4.33 5 4.33s2.5.83 2.5.83.67 1-1.5 1h-18.33c-1.5 0-.34-.83 1.33-1.5 1.67-.66 4.83-1.5 4.83-4.5s-.66-58.5-.66-62-1.34-6.16-3.84-6.5c-2.5-.33-1.33-2.16-1.33-2.16zM363.67 17.94s0 1.5 1.5 1.67 5.66 3.17 5.83 6.17c0 0 .17 58 .17 62.83s-3.5 5-4.67 5.17c-1.17.16-2.83.33-2.83.33s-1.17.83 1.33.83 39.83-.33 40.33-.33.17-10.5.67-13.33c.5-2.84 1.5-7.84.67-8-.84-.17-.84 3.83-1.84 5.33s-4 11.5-4.5 12.67c-.5 1.16-.66 1.33-2.5 1.33h-22.5v-41.5c0-1.67 2.34-3.17 4-3.17h9.17s4.67 1.67 4.67 4.84c0 3.16.83 7.33 1.33 8.16.5.84 1.33.17 1.33.17s-.16-28.17-.16-28.83c0-.67-1.84-.5-1.84.66 0 1.17-1.66 7.67-3.33 9.67s-4.17 2.33-5.67 2.33H379c-1.33 0-3.33.17-3.5-4.66-.17-4.84 0-12.17 0-14.5 0-2.34.83-6.17 5-6.17s15.33-.67 18.33 1.67c3 2.33 5.67 13.66 5.67 15.16s1.33 3.17 2 2.67-.83-12-.5-15.5-.5-6-.5-6zM460.18 5.5s0 2.51 2.51 2.79c2.52.28 9.5 5.31 9.77 10.33 0 0 .28 97.13.28 105.22s-5.86 8.37-7.81 8.65c-1.96.28-4.75.56-4.75.56s-1.95 1.39 2.24 1.39c4.18 0 66.7-.55 67.54-.55.83 0 .28-17.59 1.11-22.33.84-4.75 2.52-13.12 1.12-13.4s-1.4 6.42-3.07 8.93c-1.68 2.51-6.7 19.26-7.54 21.21-.83 1.96-1.11 2.24-4.18 2.24h-37.68v-69.5c0-2.79 3.91-5.3 6.7-5.3h15.35s7.81 2.79 7.81 8.09c0 5.31 1.4 12.28 2.24 13.68.83 1.39 2.23.28 2.23.28s-.28-47.17-.28-48.29c0-1.11-3.07-.83-3.07 1.12s-2.79 12.84-5.58 16.19-6.98 3.9-9.49 3.9h-9.77c-2.23 0-5.58.28-5.86-7.81s0-20.37 0-24.28 1.4-10.33 8.37-10.33c6.98 0 25.68-1.11 30.7 2.79 5.03 3.91 9.49 22.89 9.49 25.4s2.23 5.3 3.35 4.47c1.12-.84-1.39-20.1-.84-25.96.56-5.86-.83-10.05-.83-10.05zM211.75 104.37s0 1.29 1.28 1.43c1.29.14 4.86 2.72 5 5.29 0 0 .15 49.69.15 53.83s-3 4.29-4 4.43-2.43.29-2.43.29-1 .71 1.14.71 34.13-.29 34.56-.29.14-8.99.57-11.42 1.29-6.71.57-6.86c-.71-.14-.71 3.29-1.57 4.58-.85 1.28-3.43 9.85-3.85 10.85-.43 1-.58 1.14-2.15 1.14h-19.27v-35.56c0-1.43 2-2.71 3.42-2.71h7.86s4 1.43 4 4.14.71 6.28 1.14 7c.43.71 1.14.14 1.14.14s-.14-24.13-.14-24.71c0-.57-1.57-.42-1.57.58s-1.43 6.57-2.86 8.28-3.57 2-4.85 2h-5c-1.14 0-2.86.14-3-4s0-10.42 0-12.42.71-5.29 4.28-5.29 13.14-.57 15.71 1.43 4.86 11.71 4.86 13c0 1.28 1.14 2.71 1.71 2.28s-.71-10.28-.43-13.28c.29-3-.43-5.14-.43-5.14zM398.97 104.37s0 1.29 1.28 1.43c1.29.14 4.86 2.72 5 5.29 0 0 .14 49.69.14 53.83s-3 4.29-4 4.43-2.42.29-2.42.29-1 .71 1.14.71 34.13-.29 34.56-.29.14-8.99.57-11.42 1.28-6.71.57-6.86c-.71-.14-.71 3.29-1.57 4.58-.86 1.28-3.43 9.85-3.86 10.85s-.57 1.14-2.14 1.14h-19.28v-35.56c0-1.43 2-2.71 3.43-2.71h7.85s4 1.43 4 4.14.72 6.28 1.14 7c.43.71 1.15.14 1.15.14s-.14-24.13-.14-24.71c0-.57-1.58-.42-1.58.58s-1.42 6.57-2.85 8.28-3.57 2-4.86 2h-4.99c-1.15 0-2.86.14-3-4-.15-4.14 0-10.42 0-12.42s.71-5.29 4.28-5.29 13.14-.57 15.71 1.43 4.85 11.71 4.85 13c0 1.28 1.15 2.71 1.72 2.28s-.72-10.28-.43-13.28c.28-3-.43-5.14-.43-5.14z" class="s0"/><path id="&lt;Compound Path&gt;" fill-rule="evenodd" d="M173.91 137.36s-9 .57-9 0 .86-.57 1.71-.71c.86-.15 1.29-.29 1-1.72-.28-1.42-4.85-17.28-4.85-17.28h-5s-5 18.85-4.28 19.14c.71.29 1.85.57 1.42.57 0 0-5.71.29-6.42.29-.72 0 .14-.57-.29-.57-.87 0 2.71-.43 3.29-1.72.57-1.28 4.99-17.71 4.99-17.71h-21.7l.57-.57h21.13l3-10.14-3.28-1.28s-.43-.86.28-.86c.72 0 4.86.14 5.29.43s6.71 25.71 7.28 27.13c.57 1.43 1.29 3.15 2.29 4 1 .86 2.57 1 2.57 1zm-11.28-20.56-2.15-8.71-2.57 8.71z" class="s0"/><path d="M200.54 127.94s6-9.86 7.07-11.79c1.07-1.92-.43-2.14-1.5-3.64s-4.93-8.14-14.35-8.56c-7.73-.36-15.64 7.92-14.57 16.7 1.07 8.79 13.71 14.57 18.21 16.93 4.5 2.35 14.41 6.83 13.92 16.92-.43 8.78-10.71 14.35-15.21 14.35s-15.42-4.5-17.13-12c-.99-4.29-.21-8.64 0-11.35.15-2.02 1.07-1.93-.22-3.21-.54-.55 1.5-.43.43-.64-1.07-.22-6.85 12.21-6.85 12.21s8.56 17.35 21.63 16.92 20.49-10.08 20.99-16.07c.65-7.71-3.42-14.35-15.21-20.35-11.78-6-17.43-10.25-15.42-18.85 2.36-10.07 11.59-8.6 13.28-7.92 4.29 1.71 6.86 5.14 7.29 7.92.42 2.79-.86 8.36-2.15 10.28-1.28 1.93-2.35 1.93-.21 2.15zM252.81 103.95s.42 1.92 2.57 2.57c2.14.64 4.28 6.42 4.28 6.42v50.34c0 3.21-2.14 3.21-2.57 4.07l-.43.86s-4.93.64-4.28 1.5c.64.85 1.28.64 2.78.64h10.93c1.5 0 .21-1.93-1.5-1.93-1.72 0-3.43-2.35-3.64-5.14-.22-2.78 0-45.63 0-45.63s15.2 40.06 16.28 41.99c1.07 1.93 1.92 1.71 2.99-.86s16.5-48.41 16.5-48.41v52.48c0 3.22-.86 3.43-2.79 4.71-1.92 1.29-5.35 1.93-4.49 2.57.85.65 16.06 0 17.13 0s-1.71-1.07-4.07-2.57c-2.35-1.49-1.71-2.78-1.71-5.78v-51.62c0-1.5 2.57-3.64 4.07-4.07s2.14-1.72.64-1.72-9-.42-9-.42l-17.35 48.62s-17.35-47.55-17.99-48.2c-.64-.64-6.85-.85-8.35-.42z" class="s0"/><path fill-rule="evenodd" d="M338.7 129.22c-3.64 1.29-11.6 1.29-13.28 1.29-3.42 0-4.28.43-4.28 4.5s-.22 22.06-.22 27.2 0 6.21 3 6.21 4.5 2.14 2.79 2.14c-1.72 0-10.07-.21-12.21 0-2.14.22-4.07.22-4.07-.64s1.93-1.07 3.42-1.93c1.51-.85 2.58-1.71 2.58-4.71s.21-46.27 0-50.98c-.22-4.71-2.58-6.21-4.5-6.21-1.93 0-1.5-1.72-.43-1.72 0 0 22.28-.21 24.85-.21s10.92 2.36 11.35 12.42c.32 7.43-3.83 10.82-9 12.64zm5.14-11.57c.22-7.06-4.92-12.21-10.92-12.21s-8.35.22-8.35.22c-1.93.43-3.65 3-4.07 4.71-.43 1.72 0 12 0 14.35 0 2.36 1.07 3.64 4.71 3.64s8.78-.85 10.92-.85c2.15 0 7.5-2.79 7.71-9.86zM151.27 122.47c-.11 11.36-8.78 15.11-10.82 15.11h-8.89c-1.71 0-1.68-.75-.42-.75 1.17 0 1.82-.54 1.92-1.82.11-1.29.33-21.21.33-24.21s-.11-4.07-.97-4.28c-.86-.22-1.93-.43-1.93-.43.34 0-.09-.84 1.18-.97 1.59-.15 5.31-.22 7.93-.1 4.71.21 11.78 6.1 11.67 17.45zm-2.25-.21c-.21-11.89-6.1-15.96-10.39-16.28-1.39-.1-2.67-.11-2.78 1.61-.11 1.71 0 28.06-.22 28.91-.21.86 2.79.43 3.75.43.97 0 9.86-2.78 9.64-14.67zM465.5 95.28c-1.5.33-11-2.84-15.5-7.17s-6.5-19-7.67-27.5c-1.16-8.5-6.5-11.83-9.66-12.33-3.17-.5-9.17 1.66-9.17 1.66v36.67s-.17 2.67.83 4.5 3.34 2.5 4.84 2.5 2 1.5 1 1.5-15.17.33-17.84.17c-2.66-.17-2-.67-2-.67s2.17-.83 4.17-1.83 3-1.84 3-5.17v-61c0-4.67-4-6.83-5.5-6.83s-1-1.34-1-1.34 24-.5 28-.16c4 .33 16.17 2 15.83 15-.37 14.49-17 15-17 15s1.34 1 4.67 4.66c3.33 3.67 6.5 19.5 7.17 25.17.66 5.67 7.83 12.17 12 14.33 4.16 2.17 5.33 2.5 3.83 2.84zm-25.17-50.34c5.34-.83 10.32-6.66 10-12-.5-8.33-6.66-12.83-13.5-13-3.78-.09-7.53.32-9.66.34-3.22.02-4.34 1.66-4.34 1.66v23.34s12.42.46 17.5-.34zM334.17 94.28c-1.5.33-11-2.84-15.5-7.17s-6.5-19-7.67-27.5-6.5-11.83-9.67-12.33c-3.16-.5-9.16 1.66-9.16 1.66v36.67s-.17 2.67.83 4.5 3.33 2.5 4.83 2.5 2 1.5 1 1.5-15.16.33-17.83.17c-2.67-.17-2-.67-2-.67s2.17-.83 4.17-1.83 3-1.84 3-5.17v-61c0-4.67-4-6.83-5.5-6.83s-1-1.34-1-1.34 24-.5 28-.16c4 .33 16.16 2 15.83 15-.37 14.49-17 15-17 15s1.33 1 4.67 4.66c3.33 3.67 6.5 19.5 7.16 25.17.67 5.67 7.84 12.17 12 14.33 4.17 2.17 5.34 2.5 3.84 2.84zM309 43.94c5.33-.83 10.32-6.66 10-12-.5-8.33-6.67-12.83-13.5-13-3.79-.09-7.53.32-9.67.34-3.22.02-4.33 1.66-4.33 1.66v23.34s12.41.46 17.5-.34zM275.5 94.61c-1.5.33-11-2.83-15.5-7.17-4.5-4.33-6.5-19-7.67-27.5-1.16-8.5-6.5-11.83-9.66-12.33-3.17-.5-9.17 1.67-9.17 1.67v36.66s-.17 2.67.83 4.5c1 1.84 3.34 2.5 4.84 2.5s2 1.5 1 1.5-15.17.34-17.84.17c-2.66-.17-2-.67-2-.67s2.17-.83 4.17-1.83 3-1.83 3-5.17v-61c0-4.66-4-6.83-5.5-6.83s-1-1.33-1-1.33 24-.5 28-.17 16.17 2 15.83 15c-.37 14.5-17 15-17 15s1.34 1 4.67 4.67c3.33 3.66 6.5 19.5 7.17 25.16.66 5.67 7.83 12.17 12 14.34 4.16 2.16 5.33 2.5 3.83 2.83zm-25.17-50.33c5.34-.84 10.32-6.67 10-12-.5-8.34-6.66-12.84-13.5-13-3.78-.09-7.53.31-9.66.33-3.22.02-4.34 1.67-4.34 1.67v23.33s12.42.46 17.5-.33z" class="s0"/><path fill-rule="evenodd" d="M395.07 170.24c-1.3.29-9.52-2.45-13.41-6.2-3.9-3.75-5.63-16.45-6.64-23.8-1.01-7.36-5.63-10.25-8.37-10.68s-7.93 1.44-7.93 1.44v31.74s-.14 2.31.72 3.89c.87 1.59 2.89 2.17 4.19 2.17 1.29 0 1.72 1.3.86 1.3s-13.13.28-15.44.14c-2.3-.14-1.73-.58-1.73-.58s1.88-.72 3.61-1.58c1.73-.87 2.6-1.59 2.6-4.48v-52.79c0-4.04-3.47-5.92-4.76-5.92-1.3 0-.87-1.15-.87-1.15s20.77-.43 24.23-.14c3.47.28 14 1.73 13.71 12.98-.32 12.54-14.71 12.98-14.71 12.98s1.15.87 4.03 4.04c2.89 3.17 5.63 16.88 6.21 21.78.57 4.91 6.78 10.53 10.38 12.41 3.61 1.87 4.62 2.16 3.32 2.45zm-21.78-43.56c4.62-.73 8.93-5.77 8.65-10.39-.43-7.21-5.77-11.11-11.68-11.25-3.28-.08-6.52.27-8.37.29-2.78.02-3.75 1.44-3.75 1.44v20.19s10.75.4 15.15-.28z" class="s0"/></g></g></svg>