<svg xmlns="http://www.w3.org/2000/svg" width="534" height="172" version="1.2"><style>.s0{fill:#9d248d;stroke:#9d248d;stroke-linecap:round;stroke-miterlimit:10;stroke-width:2}</style><g id="tracciato guerr"><g id="&lt;Group&gt;"><path id="&lt;Path&gt;" d="m96 41 11-26S86 3 77 2C67 1 11-3 3 53c-8 62 25 88 58 87s43-25 43-25v23l4 1s0-80-2-85l-54-2-1 5h40s9 15 11 30l1 23s-20 27-43 26c-23 0-53-22-49-67C14 24 34 4 62 6c28 1 33 12 33 12z" class="s0"/><path d="m132 18-19-1v2l5 2 1 20 2 37c1 6 5 17 21 17 15 0 20-15 20-22l1-48q1-4 6-6l1-1-21-1v2s8 3 8 6v49c-1 7-5 20-15 19q-17 0-17-16V24q1-5 4-5zm42 0s0 1 2 1c1 0 6 3 6 6v63q-2 6-5 5l-3 1q-1 1 2 1l40-1 1-13v-8l-2 5-4 13-3 1h-22V51q1-3 4-3h9s5 1 5 4l1 9h1V32q-1-2-1 1 0 5-4 9l-6 3h-5q-3 1-4-5V25q0-4 5-6c4 0 15 0 18 2 4 2 6 14 6 15l2 3V23l-1-6zm165 0h19v2c-1 0-7 1-7 6v62q1 5 5 5h3l-2 1h-18q-2 0 1-1 4-1 5-5c1-4-1-58-1-62s-1-6-4-6q-2-1-1-2zm25 0s0 1 1 2 6 3 6 6v63q-1 6-4 5h-3q-1 0 1 1h40l1-14 1-8-2 6-5 12q1 2-2 2h-23V51q1-3 4-3h10s4 2 4 5l2 8h1V32l-2 1-3 10q-3 2-6 2h-6q-2 1-3-5V26q-1-5 5-6c6-1 15-1 18 1 3 3 5 14 5 15l3 3c1-1-1-12-1-15v-6zm96-12s0 2 3 2c2 1 9 6 9 11l1 105c0 8-6 8-8 8l-5 1s-2 1 2 1h68l1-22c1-5 3-14 1-14s-1 7-3 9l-7 21q-1 3-5 3h-37V61q1-5 6-5h16s8 3 8 8l2 14h2V29q-1-1-3 2c-2 3-3 12-6 16s-7 4-9 4h-10c-2 0-6 0-6-8V19c0-4 1-11 8-11s26-1 31 3 10 23 10 25 2 6 3 5-1-20-1-26q0-9-1-10zm-248 98 1 2q3 1 5 5v54q-1 5-4 4-3 0-2 1h35l1-11 1-7-2 4-4 11-2 1h-19v-35q1-3 3-3h8s4 2 4 4l1 7h1v-24h-1l-3 9q-3 2-5 2h-5q-2 1-3-4v-13q0-4 4-5c4-1 13-1 16 1s5 12 5 13l1 3v-19zm187 0 1 2q4 1 5 5v54q-1 5-4 4-3 0-2 1h36v-11l1-7-2 4-4 11-2 1h-19v-35q1-3 3-3h8s4 2 4 4l1 7h2l-1-24h-1l-3 9q-3 2-5 2h-5q-2 1-3-4v-13q0-4 4-5c4-1 14-1 16 1s5 12 5 13q0 3 2 3c2 0-1-11-1-14v-5z" class="s0"/><path id="&lt;Compound Path&gt;" fill-rule="evenodd" d="M174 137h-9 2l1-2-5-17h-5l-5 19h2l-7 1v-1c-1 0 3 0 3-2l5-17h-21v-1h21l3-10-3-1v-1h6l7 27 2 4zm-11-20-3-9-2 9z" class="s0"/><path d="m201 128 7-12q0-2-2-3c-2-1-5-9-14-9-8 0-16 8-15 17 1 8 14 14 18 17 5 2 15 6 14 17 0 8-10 14-15 14s-15-5-17-12v-15q0 0 0 0c-1-1-7 12-7 12s9 17 22 17 20-10 21-16q2-12-15-21-18-7-16-18c3-11 12-9 14-8q6 3 7 8l-2 10q-4 2 0 2zm52-24s0 2 2 3c3 0 5 6 5 6v50q-1 4-3 4v1s-5 1-5 2h14q2-1-1-2-3 0-4-5v-45l16 42q2 3 3-1l17-49v53q0 3-3 5l-5 2h18l-5-2q-2-2-1-6v-52l4-4q3-2 1-2h-9l-18 49-18-49z" class="s0"/><path fill-rule="evenodd" d="M339 129c-4 2-12 2-14 2q-4-1-4 4v27q-1 7 3 6c4-1 4 3 3 3h-12l-5-1 4-2q2-1 2-5v-51q0-6-4-6-3-1 0-2h24c2 0 11 3 12 13q-1 10-9 12zm5-11q-1-12-11-13c-10-1-8 1-8 1q-3 1-5 4v15q0 3 5 3h11c2 0 8-3 8-10zm-193 4c0 12-9 16-11 16h-8q-3 0-1-1l2-2v-24l-1-4-2-1 2-1h8c4 0 11 6 11 17zm-2 0c0-12-6-16-10-16q-3-1-3 2v29h3c1 0 10-3 10-15zm317-27c-2 1-11-3-16-7s-6-19-8-27q-3-13-9-13l-10 2v37l1 4q3 3 5 3 3 0 1 1h-20l4-2q3-1 3-5V27q-2-7-5-7-3-1-1-2h28c4 1 16 2 16 15-1 15-17 15-17 15l4 5c4 4 7 19 8 25 0 6 7 12 12 14q6 4 3 3zm-26-50q10-3 10-12-1-12-13-13h-10q-4 1-4 2v23zM334 94c-1 1-11-3-15-7s-7-19-8-27-6-12-10-13l-9 2v37l1 4q2 3 5 3 4 0 1 1h-20l4-2q3-1 3-5V26q-2-7-5-7-3-1-1-2h28c4 1 16 2 15 15 0 15-17 15-17 15l5 5c3 4 7 19 7 25 1 6 8 12 12 14q7 4 4 3zm-25-50q9-3 10-12c0-8-7-13-13-13h-10q-5 1-5 2v23zm-33 51c-2 0-11-3-16-8-4-4-6-19-8-27q-3-13-9-12c-3-1-9 1-9 1v41q3 3 5 3 3 1 1 1l-18 1-2-1 5-2q3-1 3-5V26q-1-7-6-7c-5 0-1-1-1-1h28c4 1 16 2 16 15-1 14-17 15-17 15l5 4c3 4 6 20 7 25 0 6 8 13 12 15q6 2 4 3zm-26-51q10-2 10-12-1-12-13-13l-10 1-4 1v24z" class="s0"/><path fill-rule="evenodd" d="M395 170c-1 1-9-2-13-6s-6-16-7-24q-3-10-8-10l-8 1v36l5 2v1h-17l4-2q3-1 3-4v-53q-2-6-5-6-2-1-1-1h24c4 0 14 1 14 13s-15 13-15 13l4 4c3 3 6 16 6 21q3 9 11 13zm-22-43q8-2 9-11-2-11-12-11h-8q-4 1-4 2v20z" class="s0"/></g></g></svg>